<?xml version="1.0" encoding="UTF-8"?>
<svg width="140px" height="29px" viewBox="0 0 140 29" version="1.1" xmlns="http://www.w3.org/2000/svg" xmlns:xlink="http://www.w3.org/1999/xlink">
    <!-- Generator: Sketch 45.1 (43504) - http://www.bohemiancoding.com/sketch -->
    <title>logo copy 2</title>
    <desc>Created with Sketch.</desc>
    <defs></defs>
    <g id="Page-1" stroke="none" stroke-width="1" fill="none" fill-rule="evenodd">
        <g id="logo-copy-2">
            <g id="logo">
                <path d="M56.0002268,18.3247255 C52.895844,18.3247255 50.8102285,16.2026838 50.8102285,13.0447683 C50.8102285,9.84851219 52.9446051,7.61618482 56.0002268,7.61618482 C59.0558485,7.61618482 61.1899983,9.84851219 61.1899983,13.0447683 C61.1899983,16.2026838 59.1043828,18.3247255 56.0002268,18.3247255 M56.0002268,5 C51.2896751,5 48,8.3081206 48,13.0447683 C48,17.6542154 51.3645178,21 56.0002268,21 C60.7105517,21 64,17.7286413 64,13.0447683 C64,8.38322315 60.6354822,5 56.0002268,5" id="Fill-1" fill="#2B333B"></path>
                <path d="M71.9250913,11.5873514 L71.812996,11.5707558 C69.6407427,11.245795 68.2901584,10.7963669 68.2690453,9.55505719 C68.255115,9.14936084 68.3835348,8.80915003 68.6621404,8.51558645 C69.2228343,7.92442252 70.3675116,7.58914555 71.728979,7.60237721 C73.2105951,7.60237721 74.4460369,7.83628616 75.6584067,8.97690065 L75.948766,9.24960754 L77.5803503,7.35299394 L77.3013093,7.08791209 C75.8223052,5.68333707 73.9900378,5.0006728 71.7037304,5.0006728 C71.6691223,5 71.6349496,5 71.6005592,5 C69.5915514,5 67.8306768,5.62368244 66.7576098,6.71809823 C65.9899206,7.50100919 65.6007434,8.48037677 65.6007434,9.63265306 C65.6346985,13.209464 69.3242641,13.7696793 71.5317785,14.1051805 C73.8095972,14.4321597 75.3029669,14.7622785 75.3029669,16.3128504 C75.3029669,18.2202288 72.6329237,18.3686925 71.8208318,18.3686925 C69.77591,18.3355012 67.979992,17.5113254 67.0170612,16.1648352 L66.737585,15.7737161 L65,17.7344696 L65.1880588,17.9979816 C66.5695509,19.9338417 68.9126678,21 71.7860061,21 C76.3037706,21 77.9582092,18.5978919 78,16.3422292 C78,12.4996636 74.4886984,11.9724153 71.9250913,11.5873514" id="Fill-3" fill="#2B333B"></path>
                <path d="M100.975598,11.948956 C101.471761,9.24469582 103.361041,7.79160335 106.106368,7.79160335 C109.00452,7.79160335 110.958147,9.24469582 111.190946,11.948956 L100.975598,11.948956 Z M106.075803,5 C101.396153,5 98,8.351905 98,12.9700602 C98,17.6980697 101.358234,21 106.167038,21 C108.869391,21 111.453161,19.89628 112.910625,18.1192526 L113.153765,17.8225561 L111.177387,16.1009061 L110.908278,16.4320446 C109.866313,17.7151781 107.720104,18.3603467 106.167038,18.3603467 C103.420332,18.3603467 101.381445,16.7564297 100.962959,14.3526929 L113.902261,14.3526929 L113.938342,13.9306095 C114.20837,11.2132928 113.588109,8.92233665 112.143744,7.36321684 C110.750398,5.85879903 108.595456,5 106.075803,5 L106.075803,5 Z" id="Fill-5" fill="#2B333B"></path>
                <path d="M89.2740958,18.52908 C86.1894761,18.52908 84.1119549,16.3228055 84.1119549,13.1782957 C84.1119549,9.99557412 86.0418704,7.86595059 89.2740958,7.86595059 C92.3104901,7.86595059 94.3014761,10.0890565 94.3014761,13.2715506 C94.3014761,16.4160604 92.3587155,18.52908 89.2740958,18.52908 M89.3371944,5.13358196 C84.6458141,5.13358196 81.1524056,8.46642118 81.0983211,13.0202173 L81.0041239,28.2000682 L83.7110535,28.2000682 L83.7110535,18.9023271 C84.9142085,20.1348839 86.981138,21.3001153 89.1183775,21.3001153 C93.8467155,21.3001153 96.9948845,18.0150408 96.9948845,13.2431192 C96.9948845,8.49303294 93.9904901,5.13358196 89.3371944,5.13358196" id="Fill-7" fill="#2B333B"></path>
                <path d="M29.3451556,18.52908 C26.3033778,18.52908 24.2547111,16.3228055 24.2547111,13.1782957 C24.2547111,9.99557412 26.1578222,7.86595059 29.3451556,7.86595059 C32.3391556,7.86595059 34.3024889,10.0890565 34.3024889,13.2715506 C34.3024889,16.4160604 32.3867111,18.52908 29.3451556,18.52908 M29.4073778,5.13358196 C24.7811556,5.13358196 21.3362667,8.46642118 21.2829333,13.0202173 L21.1900444,28.2000682 L23.8593778,28.2000682 L23.8593778,18.9023271 C25.0458222,20.1348839 27.0840444,21.3001153 29.1916,21.3001153 C33.8542667,21.3001153 36.9587111,18.0150408 36.9587111,13.2431192 C36.9587111,8.49303294 33.9960444,5.13358196 29.4073778,5.13358196" id="Fill-10" fill="#2B333B"></path>
                <path d="M131.733533,5 C136.440626,5 139.945734,8.28883652 140,12.7825099 L139.89373,20.9183009 L136.983282,20.9183009 L136.983282,18.6338692 C135.776324,19.8501529 133.900089,21 131.755692,21 C127.011517,21 124,17.734955 124,13.0258115 C124,8.33866397 127.064879,5 131.733533,5 Z M131.796843,18.26555 C134.891794,18.26555 136.976273,16.0884045 136.976273,12.9854109 C136.976273,9.84471004 135.039894,7.74320343 131.796843,7.74320343 C128.750505,7.74320343 126.752851,9.93695817 126.752851,13.0774346 C126.752851,16.1804281 128.702118,18.26555 131.796843,18.26555 Z" id="Fill-13" fill="#2B333B"></path>
                <path d="M47,5 C42.2894483,5 39,8.30956679 39,13.0480596 L39,21 L41.8081873,21 L41.8100017,13.0480596 C41.8100017,9.85063177 43.9443783,7.61732852 47,7.61732852 L47,5 Z" id="Fill-15" fill="#2B333B"></path>
                <path d="M124,5 C119.289448,5 116,8.30956679 116,13.0480596 L116,21 L118.808187,21 L118.810002,13.0480596 C118.810002,9.85063177 120.944378,7.61732852 124,7.61732852 L124,5 Z" id="Fill-17" fill="#2B333B"></path>
                <path d="M15.9785143,6.99382857 C15.9787429,2.77508571 12.6980571,0.314971429 8.55702857,0.0224 C8.43512381,0.0137142857 5.58293333,0.0107428571 0.000457142856,0.0134857143 L0.000457142856,7.976 C-8.96502328e-13,12.2002286 3.27565714,15.6582857 7.41211429,15.9554286 C7.88542499,15.9846522 8.24805356,15.9995093 8.5,16 C8.75194644,16.0004907 9.21087978,15.9872335 9.8768,15.9602286 L9.8768,12.6000004 C9.6256,12.733333 9.33333333,12.8333327 9,12.8999996 C8.66666667,12.9666665 8.20731429,12.9697524 7.62194286,12.9092571 C5.09714286,12.7190857 3.10925714,10.6461714 3.05622857,8.09325714 C3.05577143,8.06994286 3.05409524,6.38933333 3.0512,3.05142857 L7.97851429,3.05142857 C10.6690286,3.05531429 12.8384,5.18262857 12.92,7.83611429 C12.9210667,7.87024762 12.923581,10.5721143 12.9275429,15.9417143 L15.9853714,15.9602286 L15.9785143,6.99382857 Z" id="Fill-19" fill="#00C770"></path>
            </g>
        </g>
    </g>
</svg>